<svg width="142" height="25" viewBox="0 0 142 25" fill="none" xmlns="http://www.w3.org/2000/svg">
<path d="M0.0310949 24.2V0.50041H9.79718C10.4426 0.50041 11.1723 0.528473 11.9861 0.584599C12.8 0.640727 13.6278 0.767012 14.4698 0.963456C15.3397 1.1599 16.1255 1.48263 16.8271 1.93165C17.5567 2.38066 18.1461 2.99806 18.5951 3.78384C19.0441 4.54155 19.2686 5.52377 19.2686 6.7305C19.2686 7.62853 19.0862 8.47044 18.7214 9.25621C18.3565 10.0139 17.7111 10.6313 16.785 11.1084C15.8589 11.5855 14.4978 11.8801 12.7018 11.9924V12.1608C14.7504 12.1888 16.3219 12.4695 17.4164 13.0027C18.539 13.5078 19.3107 14.1673 19.7317 14.9812C20.1807 15.795 20.4052 16.7351 20.4052 17.8015C20.4052 19.0363 20.1666 20.0607 19.6896 20.8745C19.2125 21.6883 18.5811 22.3198 17.7953 22.7688C17.0095 23.2178 16.1536 23.5405 15.2275 23.737C14.3014 23.9334 13.3612 24.0597 12.4071 24.1158C11.481 24.1719 10.6531 24.2 9.92347 24.2H0.0310949ZM5.04042 20.1168H9.46042C10.4707 20.1168 11.3968 20.0747 12.2387 19.9905C13.1087 19.8782 13.8103 19.6116 14.3435 19.1907C14.9047 18.7417 15.1854 18.026 15.1854 17.0438C15.1854 16.0335 14.9047 15.3179 14.3435 14.897C13.8103 14.448 13.0946 14.1673 12.1966 14.0551C11.3266 13.9428 10.3725 13.8867 9.33414 13.8867H5.04042V20.1168ZM4.99833 10.0981H9.16576C10.0357 10.0981 10.8496 10.056 11.6073 9.97183C12.3931 9.85958 13.0245 9.62104 13.5016 9.25621C14.0067 8.86332 14.2593 8.21786 14.2593 7.31983C14.2593 6.4218 14.0207 5.79037 13.5437 5.42555C13.0666 5.03266 12.4352 4.80815 11.6494 4.75203C10.8917 4.66783 10.0638 4.62574 9.16576 4.62574H4.99833V10.0981ZM33.2653 1.25812V24.2H28.1717V1.25812H33.2653ZM21.4786 4.83622V0.50041H40.0005V4.83622H21.4786ZM53.6259 24.621C51.4088 24.621 49.3883 24.1719 47.5641 23.2739C45.74 22.3759 44.2807 21.0288 43.1862 19.2328C42.1198 17.4087 41.6007 15.1636 41.6287 12.4975C41.6568 9.85958 42.19 7.6145 43.2283 5.76231C44.2948 3.91012 45.74 2.50695 47.5641 1.55279C49.3883 0.570568 51.4509 0.0794579 53.7521 0.0794579C56.0253 0.0794579 57.9617 0.486378 59.5613 1.30022C61.1609 2.11406 62.4097 3.20853 63.3078 4.58364C64.2338 5.95875 64.8372 7.47418 65.1179 9.12993H59.8559C59.6876 7.95126 59.2666 7.06726 58.5931 6.47793C57.9196 5.86053 57.1338 5.43958 56.2358 5.21507C55.3658 4.99056 54.5379 4.87831 53.7521 4.87831C51.4229 4.87831 49.6549 5.50974 48.4481 6.77259C47.2414 8.03545 46.6381 9.81748 46.6381 12.1187C46.6381 14.5883 47.2274 16.4966 48.4061 17.8436C49.5847 19.1907 51.3527 19.8642 53.71 19.8642C54.552 19.8642 55.4079 19.7379 56.2779 19.4853C57.1759 19.2328 57.9617 18.7838 58.6352 18.1383C59.3368 17.4648 59.7718 16.5387 59.9401 15.36H65.202C64.9214 17.0438 64.318 18.6013 63.3919 20.0326C62.4659 21.4358 61.189 22.5583 59.5613 23.4002C57.9617 24.214 55.9832 24.621 53.6259 24.621ZM68.6315 24.2V0.50041H78.3976C79.043 0.50041 79.7727 0.528473 80.5865 0.584599C81.4004 0.640727 82.2282 0.767012 83.0701 0.963456C83.9401 1.1599 84.7259 1.48263 85.4275 1.93165C86.1571 2.38066 86.7465 2.99806 87.1955 3.78384C87.6445 4.54155 87.869 5.52377 87.869 6.7305C87.869 7.62853 87.6866 8.47044 87.3218 9.25621C86.9569 10.0139 86.3115 10.6313 85.3854 11.1084C84.4593 11.5855 83.0982 11.8801 81.3021 11.9924V12.1608C83.3508 12.1888 84.9223 12.4695 86.0168 13.0027C87.1393 13.5078 87.9111 14.1673 88.332 14.9812C88.7811 15.795 89.0056 16.7351 89.0056 17.8015C89.0056 19.0363 88.767 20.0607 88.2899 20.8745C87.8129 21.6883 87.1814 22.3198 86.3957 22.7688C85.6099 23.2178 84.7539 23.5405 83.8279 23.737C82.9018 23.9334 81.9616 24.0597 81.0075 24.1158C80.0814 24.1719 79.2535 24.2 78.5239 24.2H68.6315ZM73.6408 20.1168H78.0608C79.0711 20.1168 79.9972 20.0747 80.8391 19.9905C81.7091 19.8782 82.4106 19.6116 82.9439 19.1907C83.5051 18.7417 83.7858 18.026 83.7858 17.0438C83.7858 16.0335 83.5051 15.3179 82.9439 14.897C82.4106 14.448 81.695 14.1673 80.797 14.0551C79.927 13.9428 78.9729 13.8867 77.9345 13.8867H73.6408V20.1168ZM73.5987 10.0981H77.7661C78.6361 10.0981 79.45 10.056 80.2077 9.97183C80.9934 9.85958 81.6249 9.62104 82.1019 9.25621C82.6071 8.86332 82.8597 8.21786 82.8597 7.31983C82.8597 6.4218 82.6211 5.79037 82.144 5.42555C81.667 5.03266 81.0355 4.80815 80.2498 4.75203C79.492 4.66783 78.6642 4.62574 77.7661 4.62574H73.5987V10.0981ZM108.844 0.50041H114.148V24.2H104.424L98.1514 2.73145H98.0672V24.2H92.8053V0.50041H101.814L108.759 21.969H108.844V0.50041ZM134.642 24.2L126.513 13.199H123.254L133.126 0.649517H139.191L130.32 11.9086L130.255 9.61806L141.03 24.2H134.642ZM119.157 24.2V0.649517H124.448V24.2H119.157Z" fill="white"/>
</svg>
