<svg width="48" height="36" viewBox="0 0 48 36" fill="none" xmlns="http://www.w3.org/2000/svg">
<g clip-path="url(#clip0_1_841)">
<path d="M17.7735 11.2697C17.4517 11.2697 17.1371 11.3651 16.8695 11.5438C16.6019 11.7226 16.3933 11.9767 16.2701 12.274C16.1468 12.5713 16.1145 12.8984 16.1772 13.2141C16.2399 13.5298 16.3947 13.8198 16.6222 14.0474C16.8496 14.2751 17.1395 14.4302 17.4551 14.4932C17.7707 14.5562 18.0979 14.5241 18.3953 14.4012C18.6927 14.2782 18.947 14.0699 19.126 13.8024C19.305 13.535 19.4007 13.2205 19.401 12.8987V12.8972C19.401 11.9987 18.672 11.2697 17.7735 11.2697ZM13.413 15.8297V17.9567H16.335V25.1462H17.391V21.0602H18.1545V25.1462H19.2195V15.8297H13.413ZM27.183 16.6337H27.15C26.7195 16.0097 25.857 15.5807 24.6915 15.5807C22.458 15.5807 20.496 17.4167 20.5125 20.5592C20.5125 23.4632 22.284 25.3607 24.501 25.3607C25.6965 25.3607 26.841 24.8192 27.4035 23.8007L27.579 25.1402H30.0825V11.4767H27.1815L27.183 16.6337ZM27.183 20.9897C27.183 21.2267 27.165 21.4592 27.132 21.6872L27.135 21.6617C26.97 22.4597 26.274 23.0492 25.44 23.0492H25.419C24.2235 23.0492 23.4435 22.0607 23.4435 20.4647C23.4435 18.9977 24.1125 17.8142 25.437 17.8142C26.346 17.8142 26.97 18.4697 27.144 19.2347C27.165 19.3697 27.1785 19.5257 27.1785 19.6847L27.177 19.7657V19.7612L27.183 20.9897ZM13.203 13.3352L13.9155 10.9352C13.7272 10.8716 13.5348 10.821 13.3395 10.7837L13.311 10.7792C12.9032 10.6858 12.4859 10.6395 12.0675 10.6412C11.5168 10.6402 10.9688 10.7206 10.4415 10.8797L10.482 10.8692C10.2848 10.9262 10.0938 11.0031 9.91203 11.0987L9.92853 11.0912C9.56193 11.2754 9.22637 11.5158 8.93404 11.8037C8.18404 12.5387 7.80304 13.5362 7.80304 14.7662V15.8282H5.99854V17.9552H7.79704V25.1447H10.6785V17.9552H12.477V15.8312H10.6785V14.7062C10.6536 14.3188 10.7769 13.9364 11.0235 13.6367L11.022 13.6397C11.0516 13.6068 11.0832 13.5757 11.1165 13.5467L11.118 13.5452C11.118 13.5452 11.7405 12.9302 13.203 13.3352ZM36.459 15.5822C33.444 15.5822 31.4685 17.5112 31.4685 20.5427C31.4685 23.5742 33.558 25.3607 36.288 25.3607C38.784 25.3607 41.202 23.8007 41.202 20.3702C41.199 17.5592 39.3015 15.5822 36.459 15.5822ZM36.3645 23.2712C35.1165 23.2712 34.4505 22.0757 34.4505 20.4647C34.4505 19.0922 34.992 17.6732 36.3645 17.6732C37.671 17.6732 38.2155 19.0772 38.2155 20.4497C38.2155 22.1552 37.4925 23.2727 36.3645 23.2727V23.2712ZM39.7395 14.6417H40.0875V15.5252H40.2975V14.6417H40.644V14.4662H39.7395V14.6417ZM41.6985 14.4662L41.4255 15.2237L41.154 14.4662H40.8495V15.5267H41.0445V14.6702L41.3415 15.5267H41.511L41.8035 14.6702V15.5267H41.9985V14.4662H41.6985Z" fill="white"/>
</g>
<defs>
<clipPath id="clip0_1_841">
<rect width="36" height="36" fill="white" transform="translate(6)"/>
</clipPath>
</defs>
</svg>
