<svg width="48" height="30" viewBox="0 0 48 30" fill="none" xmlns="http://www.w3.org/2000/svg">
<path d="M18.957 4.33802C18.6205 4.34643 18.2915 4.43909 18 4.60752C17.033 5.16582 16.7015 6.40222 17.2598 7.36922L20.498 12.9786H14.0215C12.9049 12.9786 12 13.8836 12 15.0001C12 16.1167 12.905 17.0216 14.0215 17.0216H20.498L17.2598 22.631C16.7015 23.598 17.033 24.8344 18 25.3927C18.967 25.9509 20.2034 25.6194 20.7617 24.6524L24 19.0451L27.2383 24.6525C27.7966 25.6195 29.033 25.951 30 25.3928C30.967 24.8345 31.2985 23.5981 30.7402 22.6311L27.502 17.0217H33.9785C35.0951 17.0216 36 16.1166 36 15.0001C36 13.8835 35.095 12.9786 33.9785 12.9786H27.502L30.7402 7.36922C31.2985 6.40222 30.967 5.16582 30 4.60752C29.033 4.04932 27.7966 4.38082 27.2383 5.34782L24 10.9551L20.7617 5.34782C20.378 4.68302 19.674 4.31942 18.957 4.33802ZM28.916 5.34382C29.1092 5.33112 29.3088 5.37552 29.4941 5.48252C29.9885 5.76792 30.1506 6.36912 29.8652 6.86342L25.752 13.9884H33.9785C34.5494 13.9884 34.9902 14.4292 34.9902 15.0001C34.9902 15.571 34.5494 16.0118 33.9785 16.0118H26.92L25.752 13.9884L24.584 11.9649L28.1134 5.85362C28.2917 5.54472 28.5941 5.36512 28.916 5.34382ZM18.9824 5.34782C19.3411 5.33852 19.6905 5.51382 19.8867 5.85362L23.416 11.9649L22.248 13.9884L21.08 16.0118H14.0216C13.4507 16.0118 13.0099 15.571 13.0099 15.0001C13.0099 14.4292 13.4507 13.9884 14.0216 13.9884H22.248L18.1349 6.86342C17.8495 6.36912 18.0116 5.76792 18.5059 5.48252C18.6508 5.39792 18.8147 5.35157 18.9824 5.34782ZM21.666 17.0216H26.334L29.8652 23.1368C30.1506 23.6311 29.9885 24.2323 29.4942 24.5177C29 24.8029 28.3986 24.6408 28.1132 24.1466L24 17.0255L19.8867 24.1465C19.6014 24.6408 19 24.8029 18.5059 24.5177C18.0115 24.2323 17.8494 23.6311 18.1348 23.1368L21.666 17.0216Z" fill="white"/>
</svg>
