<svg width="48" height="30" viewBox="0 0 48 30" fill="none" xmlns="http://www.w3.org/2000/svg">
<g clip-path="url(#clip0_1_836)">
<path d="M30.612 23.12L30.7967 22.4798C31.016 21.7188 30.9348 21.0165 30.5653 20.4989C30.22 20.0226 29.6572 19.7431 28.9682 19.7103L15.9273 19.5446C15.8863 19.544 15.8462 19.5336 15.8102 19.5141C15.7742 19.4947 15.7434 19.4668 15.7205 19.4329C15.6976 19.399 15.6833 19.3601 15.6787 19.3194C15.6741 19.2788 15.6794 19.2377 15.6942 19.1995C15.7163 19.1356 15.7568 19.0797 15.8105 19.0386C15.8642 18.9974 15.9288 18.973 15.9963 18.9683L29.1633 18.7957C30.7173 18.725 32.4163 17.4584 33.0085 15.9123L33.7578 13.9521C33.7791 13.8971 33.7896 13.8385 33.7889 13.7796C33.788 13.7483 33.7845 13.7171 33.7785 13.6864C33.3697 11.8631 32.3759 10.2233 30.9484 9.01664C29.5209 7.80998 27.738 7.10257 25.871 7.00214C24.0041 6.90171 22.1555 7.41375 20.6066 8.4603C19.0578 9.50686 17.8936 11.0306 17.2913 12.7995C16.6519 12.3245 15.8811 12.059 15.0847 12.0393C14.2883 12.0196 13.5053 12.2467 12.8432 12.6895C12.1811 13.1322 11.6723 13.769 11.3867 14.5122C11.1012 15.2555 11.0528 16.0688 11.2482 16.8407C10.4723 16.8607 9.70958 17.0453 9.01047 17.3822C8.31137 17.719 7.69186 18.2005 7.19298 18.7947C6.6941 19.3888 6.32724 20.0822 6.11669 20.8287C5.90615 21.5753 5.85673 22.358 5.97171 23.1251C5.98002 23.1857 6.00993 23.2412 6.05593 23.2814C6.10192 23.3217 6.16092 23.344 6.22206 23.3443H30.3064C30.3747 23.345 30.4415 23.3235 30.4966 23.283C30.5517 23.2426 30.5922 23.1854 30.612 23.12Z" fill="white"/>
<path d="M34.9578 14.1006C34.8427 14.1006 34.7218 14.104 34.5952 14.1109C34.5762 14.1115 34.5574 14.1156 34.5399 14.123C34.5084 14.1335 34.4799 14.1515 34.457 14.1756C34.4341 14.1997 34.4175 14.229 34.4087 14.2611L33.8907 16.0315C33.6697 16.7924 33.7509 17.4947 34.1221 18.0124C34.3097 18.2574 34.5511 18.4559 34.8278 18.5926C35.1044 18.7294 35.4088 18.8007 35.7175 18.801L38.499 18.9735C38.5379 18.9747 38.576 18.985 38.6102 19.0036C38.6444 19.0222 38.6737 19.0485 38.6959 19.0805C38.7193 19.1147 38.7343 19.154 38.7394 19.1951C38.7445 19.2363 38.7396 19.278 38.7252 19.3169C38.703 19.3808 38.6626 19.4368 38.6089 19.4779C38.5552 19.519 38.4905 19.5434 38.4231 19.5481L35.5345 19.7207C33.965 19.7932 32.2746 21.058 31.6824 22.6024L31.4735 23.1476C31.4648 23.1705 31.4616 23.195 31.4641 23.2193C31.4667 23.2436 31.4749 23.267 31.4882 23.2875C31.5015 23.308 31.5195 23.3251 31.5406 23.3374C31.5617 23.3497 31.5855 23.3568 31.6099 23.3581H41.5603C41.6209 23.3596 41.6803 23.3404 41.7286 23.3037C41.7769 23.267 41.8113 23.215 41.8262 23.1563C42.1228 22.0969 42.1702 20.9833 41.9648 19.9025C41.7593 18.8217 41.3065 17.8031 40.6418 16.9263C39.9771 16.0494 39.1184 15.3381 38.133 14.8479C37.1475 14.3577 36.062 14.1019 34.9612 14.1006H34.9578Z" fill="white"/>
</g>
<defs>
<clipPath id="clip0_1_836">
<rect width="36.1739" height="16.3478" fill="white" transform="translate(5.91309 7)"/>
</clipPath>
</defs>
</svg>
